<svg version="1.1" xmlns="http://www.w3.org/2000/svg" viewBox="-6.583198135066909 -8.208220305068007 14.000002000000002 16.81336251505504" fill="none" stroke="black" stroke-width="0.6%" vector-effect="non-scaling-stroke">
    <path d="M 1.68026 7.53446 L 1.68026 -0.97409 A 6 3.15241 360 0 1 -5.5832 -4.05581 A 6 3.15241 360 0 1 -4.02909 -6.17273 A 6 3.15241 360 0 1 6.4168 -4.05581 L 6.4168 4.45273 A 6 3.15241 360 0 1 6.37793 4.811 A 3.5 1.8389 180 0 0 1.68026 4.89921" />
    <path d="M 1.68026 7.53446 A 6 3.15241 360 0 1 -5.5832 4.45273" />
    <path d="M 6.37793 4.811 L 6.37793 -3.69754 A 3.5 1.8389 180 0 0 1.52828 -3.52658 A 3.5 1.8389 180 0 0 0.62172 -2.29171 A 3.5 1.8389 180 0 0 1.68026 -0.97409" />
    <path d="M 6.4168 -4.05581 A 6 3.15241 360 0 1 6.37793 -3.69754" />
    <path d="M -5.5832 -4.05581 L -5.5832 4.45273" />
</svg>